<?xml version="1.0" standalone="no"?>
<!DOCTYPE svg PUBLIC "-//W3C//DTD SVG 20010904//EN"
 "http://www.w3.org/TR/2001/REC-SVG-20010904/DTD/svg10.dtd">
<svg version="1.0" xmlns="http://www.w3.org/2000/svg"
 width="665.000000pt" height="375.000000pt" viewBox="0 0 665.000000 375.000000"
 preserveAspectRatio="xMidYMid meet">

<g transform="translate(0.000000,375.000000) scale(0.100000,-0.100000)"
fill="#000000" stroke="none">
<path d="M892 2088 l3 -533 27 -74 c42 -116 113 -202 218 -266 116 -70 107
-69 689 -73 288 -2 527 0 530 5 3 4 4 251 1 548 l-5 540 -37 75 c-65 133 -171
227 -318 280 -65 24 -67 24 -588 28 l-523 3 3 -533z m905 388 c120 -37 244
-128 320 -234 72 -102 95 -173 101 -319 4 -112 2 -130 -21 -206 -32 -102 -71
-162 -161 -251 -86 -85 -190 -137 -317 -162 -78 -15 -94 -15 -175 -1 -159 27
-246 71 -352 176 -65 65 -125 161 -150 241 -13 41 -17 89 -16 190 1 158 16
212 89 321 92 135 238 232 395 263 49 9 236 -3 287 -18z"/>
<path d="M1521 2369 c-73 -12 -184 -73 -242 -132 -93 -95 -139 -206 -139 -338
0 -103 27 -188 89 -275 101 -143 256 -215 434 -201 195 15 361 149 418 339 18
58 21 87 17 169 -4 89 -9 107 -41 171 -101 203 -305 305 -536 267z m204 -233
c100 -47 148 -125 147 -238 0 -121 -67 -211 -178 -244 -70 -20 -130 -14 -199
22 -90 45 -134 120 -134 229 -1 187 195 311 364 231z"/>
<path d="M1584 2023 c-12 -2 -39 -18 -59 -36 -32 -28 -37 -38 -37 -79 -3 -150
190 -189 249 -50 20 48 8 96 -33 132 -19 16 -40 30 -47 30 -7 0 -21 2 -32 4
-11 2 -30 2 -41 -1z"/>
<path d="M3222 1868 c2 -182 6 -242 16 -246 9 -3 12 50 12 242 0 213 -2 246
-15 246 -13 0 -15 -31 -13 -242z"/>
<path d="M3355 2098 c-3 -7 -4 -117 -3 -243 3 -197 5 -230 18 -230 12 0 16 17
18 78 2 42 7 77 12 77 6 0 10 -3 10 -7 0 -18 137 -156 149 -152 10 4 -9 31
-57 86 -40 45 -72 88 -72 95 0 8 29 43 65 78 36 35 65 68 65 72 0 24 -38 -1
-98 -63 l-67 -72 -5 143 c-4 102 -9 145 -17 148 -7 2 -15 -2 -18 -10z"/>
<path d="M4390 1864 l0 -245 28 3 27 3 5 117 c5 105 7 119 29 142 43 46 115
43 143 -6 8 -13 15 -71 18 -138 5 -115 5 -115 30 -115 l25 0 3 115 c4 183 -24
230 -141 230 -31 0 -61 -6 -73 -15 -10 -8 -22 -15 -26 -15 -5 0 -8 38 -8 85
l0 85 -30 0 -30 0 0 -246z"/>
<path d="M2687 2053 c-4 -3 -7 -28 -7 -54 0 -44 -2 -48 -25 -51 -14 -2 -26 -7
-26 -13 0 -5 12 -11 26 -13 l25 -3 0 -125 c0 -125 0 -126 29 -155 29 -28 53
-35 85 -23 29 11 19 34 -13 28 -21 -5 -34 -1 -50 15 -19 19 -21 32 -21 140 l0
120 47 3 c66 4 70 28 4 28 l-51 0 0 55 c0 51 -7 65 -23 48z"/>
<path d="M2955 1961 c-53 -13 -78 -31 -65 -46 9 -11 15 -11 38 1 69 36 158 3
164 -61 3 -30 2 -30 -40 -27 -57 4 -147 -23 -167 -50 -21 -32 -19 -90 6 -121
11 -15 37 -31 57 -38 36 -10 60 -6 135 26 12 5 17 2 17 -10 0 -9 6 -15 13 -12
9 3 12 37 12 128 -1 165 -18 199 -105 212 -19 3 -48 2 -65 -2z m123 -167 c17
-5 22 -14 22 -40 0 -52 -19 -81 -63 -99 -94 -38 -176 34 -119 105 25 31 106
48 160 34z"/>
<path d="M3681 1957 c-27 -16 -50 -53 -51 -82 0 -36 35 -79 76 -94 82 -28 104
-42 104 -67 0 -44 -59 -56 -131 -28 -43 18 -58 11 -59 -24 0 -21 64 -42 129
-42 51 0 63 4 90 29 24 22 31 38 31 66 0 55 -13 70 -94 105 -80 35 -92 48 -72
75 14 19 53 24 103 11 27 -6 32 -4 38 14 4 12 2 27 -4 33 -17 17 -132 20 -160
4z"/>
<path d="M4035 1944 c-36 -24 -37 -24 -32 -5 4 18 0 21 -24 21 l-29 0 0 -235
0 -235 35 0 35 0 0 80 c0 44 3 80 8 80 4 0 16 -7 26 -15 32 -24 126 -20 166 8
57 38 74 70 78 145 3 60 0 72 -24 109 -35 53 -76 73 -147 73 -42 0 -63 -6 -92
-26z m173 -70 c27 -29 32 -41 32 -85 0 -42 -5 -55 -29 -79 -72 -72 -179 -42
-197 56 -8 45 0 76 31 113 44 51 111 49 163 -5z"/>
<path d="M4864 1951 c-91 -56 -117 -176 -57 -268 40 -60 157 -82 233 -43 46
23 48 30 20 55 -19 17 -21 17 -39 1 -24 -22 -79 -30 -113 -17 -25 9 -68 63
-68 84 0 4 61 7 136 7 l137 0 -6 52 c-7 59 -28 92 -77 126 -42 28 -122 30
-166 3z m121 -45 c31 -13 55 -41 55 -65 0 -7 -36 -11 -100 -11 l-101 0 16 31
c9 17 31 37 48 44 40 18 41 18 82 1z"/>
<path d="M5268 1954 c-16 -8 -28 -10 -28 -4 0 5 -14 10 -30 10 l-30 0 2 -167
3 -168 25 0 c25 0 25 1 30 112 6 132 22 166 82 171 26 2 38 10 46 27 6 12 8
26 5 29 -12 11 -78 5 -105 -10z"/>
<path d="M5473 1941 c-71 -51 -95 -175 -49 -245 29 -45 90 -78 143 -78 88 0
156 44 121 78 -13 14 -19 13 -49 -5 -41 -25 -70 -26 -114 -6 -29 14 -55 50
-55 75 0 5 60 11 133 12 l132 3 -2 43 c-4 92 -69 152 -163 152 -47 0 -64 -5
-97 -29z m136 -32 c26 -9 61 -51 61 -74 0 -3 -45 -5 -100 -5 -55 0 -100 4
-100 9 0 18 51 70 73 74 12 2 25 5 28 6 3 0 20 -4 38 -10z"/>
</g>
</svg>
